# xmcd CD database file
#
# Track frame offsets:
#	150
#	37079
#	61590
#	81730
#	111285
#	139913
#	157656
#	182894
#	200878
#	224946
#	251797
#	284235
#
# Disc length: 3923 seconds
#
# Revision: 0
# Processed by: cddbd v1.5.1PL0 Copyright (c) Steve Scherf et al.
# Submitted via: CDex 1.51
#
DISCID=cb0f510c
DTITLE=Karl Jannuska - Liberating Vines
DYEAR=2004
DGENRE=Jazz
TTITLE0=Late Morning
TTITLE1=Liberating Vines
TTITLE2=Aka
TTITLE3=Leaving Yverdon
TTITLE4=Meshugah
TTITLE5=DVX-80 X
TTITLE6=Little Player
TTITLE7=Nickel Days
TTITLE8=Grover's Corners Eternal
TTITLE9=Diamond in the Rough
TTITLE10=Edible Sculptures
TTITLE11=Less
EXTD=YEAR: 2004
EXTT0=
EXTT1=
EXTT2=
EXTT3=
EXTT4=
EXTT5=
EXTT6=
EXTT7=
EXTT8=
EXTT9=
EXTT10=
EXTT11=
PLAYORDER=
